<?xml version="1.0" encoding="iso-8859-1"?>
<!-- Generator: Adobe Illustrator 19.0.0, SVG Export Plug-In . SVG Version: 6.00 Build 0)  -->
<svg version="1.1" id="Layer_1" xmlns="http://www.w3.org/2000/svg" xmlns:xlink="http://www.w3.org/1999/xlink" x="0px" y="0px"
	 viewBox="0 0 512.035 512.035" style="enable-background:new 0 0 512.035 512.035;" xml:space="preserve">
<g>
	<g>
		<path d="M506.897,0.888c-3.413-1.707-6.827-0.853-9.387,1.707L256.017,244.088L14.524,2.595c-2.56-2.56-5.973-3.413-9.387-1.707
			c-3.413,0.853-5.12,4.267-5.12,7.68v247.467c0,2.56,0.853,4.267,2.56,5.973l247.467,247.467c1.707,1.707,3.413,2.56,5.973,2.56
			c2.56,0,4.267-0.853,5.973-2.56l247.467-247.467c1.707-1.707,2.56-3.413,2.56-5.973V8.568
			C512.017,5.155,510.311,1.741,506.897,0.888z M494.951,252.621L256.017,491.555L17.084,252.621V29.048l232.96,232.96
			c3.413,3.413,8.533,3.413,11.947,0l232.96-232.96V252.621z"/>
	</g>
</g>
<g>
</g>
<g>
</g>
<g>
</g>
<g>
</g>
<g>
</g>
<g>
</g>
<g>
</g>
<g>
</g>
<g>
</g>
<g>
</g>
<g>
</g>
<g>
</g>
<g>
</g>
<g>
</g>
<g>
</g>
</svg>
